<?xml version="1.0" encoding="UTF-8" standalone="no"?>
<!DOCTYPE svg PUBLIC "-//W3C//DTD SVG 1.1//EN"
 "http://www.w3.org/Graphics/SVG/1.1/DTD/svg11.dtd">
<!-- Generated by graphviz version 7.1.0 (20230121.1956)
 -->
<!-- Title: g Pages: 1 -->
<svg width="262pt" height="439pt"
 viewBox="0.00 0.00 261.50 439.00" xmlns="http://www.w3.org/2000/svg" xmlns:xlink="http://www.w3.org/1999/xlink">
<g id="graph0" class="graph" transform="scale(1 1) rotate(0) translate(4 435)">
<title>g</title>
<polygon fill="white" stroke="none" points="-4,4 -4,-435 257.5,-435 257.5,4 -4,4"/>
<!-- Jogo -->
<g id="node1" class="node">
<title>Jogo</title>
<polygon fill="none" stroke="black" points="82,-379.5 82,-430.5 136,-430.5 136,-379.5 82,-379.5"/>
<text text-anchor="middle" x="109" y="-420.1" font-family="Sans-Serif" font-size="8.00">Jogo</text>
<polyline fill="none" stroke="black" points="82,-413.5 136,-413.5"/>
<text text-anchor="middle" x="109" y="-403.1" font-family="Sans-Serif" font-size="8.00"> </text>
<polyline fill="none" stroke="black" points="82,-396.5 136,-396.5"/>
<text text-anchor="middle" x="109" y="-386.1" font-family="Sans-Serif" font-size="8.00"> </text>
</g>
<!-- MDRenderer -->
<g id="node2" class="node">
<title>MDRenderer</title>
<polygon fill="none" stroke="black" points="0,-278 0,-329 62,-329 62,-278 0,-278"/>
<text text-anchor="middle" x="31" y="-318.6" font-family="Sans-Serif" font-size="8.00">MDRenderer</text>
<polyline fill="none" stroke="black" points="0,-312 62,-312"/>
<text text-anchor="middle" x="31" y="-301.6" font-family="Sans-Serif" font-size="8.00"> </text>
<polyline fill="none" stroke="black" points="0,-295 62,-295"/>
<text text-anchor="middle" x="31" y="-284.6" font-family="Sans-Serif" font-size="8.00"> </text>
</g>
<!-- Jogo&#45;&gt;MDRenderer -->
<g id="edge5" class="edge">
<title>Jogo&#45;&gt;MDRenderer</title>
<path fill="none" stroke="black" stroke-dasharray="5,2" d="M89.92,-379.66C79.72,-366.65 67.04,-350.47 56.05,-336.46"/>
<polygon fill="black" stroke="black" points="50.15,-328.93 59.87,-334.03 53.24,-332.87 56.32,-336.8 56.32,-336.8 56.32,-336.8 53.24,-332.87 52.78,-339.58 50.15,-328.93 50.15,-328.93"/>
</g>
<!-- DataBase -->
<g id="node3" class="node">
<title>DataBase</title>
<polygon fill="none" stroke="black" points="46,-176.5 46,-227.5 100,-227.5 100,-176.5 46,-176.5"/>
<text text-anchor="middle" x="73" y="-217.1" font-family="Sans-Serif" font-size="8.00">DataBase</text>
<polyline fill="none" stroke="black" points="46,-210.5 100,-210.5"/>
<text text-anchor="middle" x="73" y="-200.1" font-family="Sans-Serif" font-size="8.00"> </text>
<polyline fill="none" stroke="black" points="46,-193.5 100,-193.5"/>
<text text-anchor="middle" x="73" y="-183.1" font-family="Sans-Serif" font-size="8.00"> </text>
</g>
<!-- Jogo&#45;&gt;DataBase -->
<g id="edge6" class="edge">
<title>Jogo&#45;&gt;DataBase</title>
<path fill="none" stroke="black" stroke-dasharray="5,2" d="M104.66,-379.75C98.28,-344.14 86.35,-277.53 79.1,-237.03"/>
<polygon fill="black" stroke="black" points="77.36,-227.33 83.55,-236.38 78.24,-232.25 79.12,-237.17 79.12,-237.17 79.12,-237.17 78.24,-232.25 74.69,-237.97 77.36,-227.33 77.36,-227.33"/>
</g>
<!-- Pergunta -->
<g id="node6" class="node">
<title>Pergunta</title>
<polygon fill="none" stroke="black" points="108,-88.5 108,-139.5 162,-139.5 162,-88.5 108,-88.5"/>
<text text-anchor="middle" x="135" y="-129.1" font-family="Sans-Serif" font-size="8.00">Pergunta</text>
<polyline fill="none" stroke="black" points="108,-122.5 162,-122.5"/>
<text text-anchor="middle" x="135" y="-112.1" font-family="Sans-Serif" font-size="8.00"> </text>
<polyline fill="none" stroke="black" points="108,-105.5 162,-105.5"/>
<text text-anchor="middle" x="135" y="-95.1" font-family="Sans-Serif" font-size="8.00"> </text>
</g>
<!-- Jogo&#45;&gt;Pergunta -->
<g id="edge8" class="edge">
<title>Jogo&#45;&gt;Pergunta</title>
<path fill="none" stroke="black" stroke-dasharray="5,2" d="M111.17,-379.86C115.8,-328.43 126.64,-207.97 131.95,-148.89"/>
<polygon fill="black" stroke="black" points="132.82,-139.28 136.4,-149.64 132.37,-144.26 131.92,-149.24 131.92,-149.24 131.92,-149.24 132.37,-144.26 127.44,-148.83 132.82,-139.28 132.82,-139.28"/>
</g>
<!-- Personagem -->
<g id="node7" class="node">
<title>Personagem</title>
<polygon fill="none" stroke="black" points="156.5,-264.5 156.5,-342.5 253.5,-342.5 253.5,-264.5 156.5,-264.5"/>
<text text-anchor="middle" x="205" y="-332.1" font-family="Sans-Serif" font-size="8.00">Personagem</text>
<polyline fill="none" stroke="black" points="156.5,-325.5 253.5,-325.5"/>
<text text-anchor="start" x="164.5" y="-315.1" font-family="Sans-Serif" font-size="8.00">+ nome: string</text>
<text text-anchor="start" x="164.5" y="-306.1" font-family="Sans-Serif" font-size="8.00">+ vida: double = 1</text>
<text text-anchor="start" x="164.5" y="-297.1" font-family="Sans-Serif" font-size="8.00">+ status: boolean</text>
<polyline fill="none" stroke="black" points="156.5,-290.5 253.5,-290.5"/>
<text text-anchor="start" x="164.5" y="-280.1" font-family="Sans-Serif" font-size="8.00">+ toogleStatus(): void</text>
<text text-anchor="start" x="164.5" y="-271.1" font-family="Sans-Serif" font-size="8.00">+ dano(): void</text>
</g>
<!-- Jogo&#45;&gt;Personagem -->
<g id="edge7" class="edge">
<title>Jogo&#45;&gt;Personagem</title>
<path fill="none" stroke="black" stroke-dasharray="5,2" d="M132.48,-379.66C141.32,-370.5 151.68,-359.76 161.75,-349.32"/>
<polygon fill="black" stroke="black" points="168.66,-342.16 164.96,-352.48 165.19,-345.76 161.72,-349.36 161.72,-349.36 161.72,-349.36 165.19,-345.76 158.48,-346.24 168.66,-342.16 168.66,-342.16"/>
</g>
<!-- DataBase&#45;&gt;Pergunta -->
<g id="edge9" class="edge">
<title>DataBase&#45;&gt;Pergunta</title>
<path fill="none" stroke="black" stroke-dasharray="5,2" d="M90.6,-176.59C97.15,-167.51 104.68,-157.06 111.66,-147.38"/>
<polygon fill="black" stroke="black" points="117.36,-139.48 115.16,-150.22 114.43,-143.53 111.51,-147.59 111.51,-147.59 111.51,-147.59 114.43,-143.53 107.86,-144.96 117.36,-139.48 117.36,-139.48"/>
</g>
<!-- Enunciado -->
<g id="node4" class="node">
<title>Enunciado</title>
<polygon fill="none" stroke="black" points="118.5,-0.5 118.5,-51.5 205.5,-51.5 205.5,-0.5 118.5,-0.5"/>
<text text-anchor="middle" x="162" y="-41.1" font-family="Sans-Serif" font-size="8.00">Enunciado</text>
<polyline fill="none" stroke="black" points="118.5,-34.5 205.5,-34.5"/>
<text text-anchor="middle" x="162" y="-24.1" font-family="Sans-Serif" font-size="8.00">+ enunciado: string</text>
<polyline fill="none" stroke="black" points="118.5,-17.5 205.5,-17.5"/>
<text text-anchor="middle" x="162" y="-7.1" font-family="Sans-Serif" font-size="8.00"> </text>
</g>
<!-- Alternativa -->
<g id="node5" class="node">
<title>Alternativa</title>
<polygon fill="none" stroke="black" points="156.5,-176.5 156.5,-227.5 237.5,-227.5 237.5,-176.5 156.5,-176.5"/>
<text text-anchor="middle" x="197" y="-217.1" font-family="Sans-Serif" font-size="8.00">Alternativa</text>
<polyline fill="none" stroke="black" points="156.5,-210.5 237.5,-210.5"/>
<text text-anchor="middle" x="197" y="-200.1" font-family="Sans-Serif" font-size="8.00">+ status: boolean</text>
<polyline fill="none" stroke="black" points="156.5,-193.5 237.5,-193.5"/>
<text text-anchor="middle" x="197" y="-183.1" font-family="Sans-Serif" font-size="8.00"> </text>
</g>
<!-- Alternativa&#45;&gt;Enunciado -->
<g id="edge1" class="edge">
<title>Alternativa&#45;&gt;Enunciado</title>
<path fill="none" stroke="black" d="M192.13,-176.81C186.14,-147.02 175.92,-96.21 169.07,-62.13"/>
<polygon fill="none" stroke="black" points="172.58,-61.87 167.18,-52.75 165.72,-63.25 172.58,-61.87"/>
</g>
<!-- Alternativa&#45;&gt;Pergunta -->
<g id="edge3" class="edge">
<title>Alternativa&#45;&gt;Pergunta</title>
<path fill="none" stroke="black" d="M179.4,-176.59C173.44,-168.32 166.67,-158.93 160.24,-150.01"/>
<polygon fill="black" stroke="black" points="160.19,-149.94 153.44,-147.41 153.17,-140.21 159.93,-142.73 160.19,-149.94"/>
<text text-anchor="middle" x="150.14" y="-142.08" font-family="Sans-Serif" font-size="8.00">1</text>
<text text-anchor="middle" x="171.4" y="-170.19" font-family="Sans-Serif" font-size="8.00">3..*</text>
</g>
<!-- Pergunta&#45;&gt;Enunciado -->
<g id="edge2" class="edge">
<title>Pergunta&#45;&gt;Enunciado</title>
<path fill="none" stroke="black" d="M142.66,-88.59C145.23,-80.42 148.14,-71.14 150.92,-62.31"/>
<polygon fill="none" stroke="black" points="154.21,-63.51 153.86,-52.92 147.53,-61.41 154.21,-63.51"/>
</g>
<!-- Personagem&#45;&gt;Alternativa -->
<g id="edge4" class="edge">
<title>Personagem&#45;&gt;Alternativa</title>
<path fill="none" stroke="black" d="M201.95,-264.6C200.95,-252.08 199.85,-238.49 198.95,-227.27"/>
<text text-anchor="middle" x="196.45" y="-229.87" font-family="Sans-Serif" font-size="8.00">1</text>
<text text-anchor="middle" x="199.45" y="-258.2" font-family="Sans-Serif" font-size="8.00">1</text>
</g>
</g>
</svg>
