<?xml version="1.0" encoding="UTF-8" standalone="no"?>
<!DOCTYPE svg PUBLIC "-//W3C//DTD SVG 1.1//EN"
 "http://www.w3.org/Graphics/SVG/1.1/DTD/svg11.dtd">
<!-- Generated by graphviz version 7.1.0 (20230121.1956)
 -->
<!-- Title: g Pages: 1 -->
<svg width="235pt" height="448pt"
 viewBox="0.00 0.00 234.50 448.00" xmlns="http://www.w3.org/2000/svg" xmlns:xlink="http://www.w3.org/1999/xlink">
<g id="graph0" class="graph" transform="scale(1 1) rotate(0) translate(4 444)">
<title>g</title>
<polygon fill="white" stroke="none" points="-4,4 -4,-444 230.5,-444 230.5,4 -4,4"/>
<!-- Jogo -->
<g id="node1" class="node">
<title>Jogo</title>
<polygon fill="none" stroke="black" points="63,-388.5 63,-439.5 117,-439.5 117,-388.5 63,-388.5"/>
<text text-anchor="middle" x="90" y="-429.1" font-family="Sans-Serif" font-size="8.00">Jogo</text>
<polyline fill="none" stroke="black" points="63,-422.5 117,-422.5"/>
<text text-anchor="middle" x="90" y="-412.1" font-family="Sans-Serif" font-size="8.00"> </text>
<polyline fill="none" stroke="black" points="63,-405.5 117,-405.5"/>
<text text-anchor="middle" x="90" y="-395.1" font-family="Sans-Serif" font-size="8.00"> </text>
</g>
<!-- MDRenderer -->
<g id="node2" class="node">
<title>MDRenderer</title>
<polygon fill="none" stroke="black" points="0,-287 0,-338 62,-338 62,-287 0,-287"/>
<text text-anchor="middle" x="31" y="-327.6" font-family="Sans-Serif" font-size="8.00">MDRenderer</text>
<polyline fill="none" stroke="black" points="0,-321 62,-321"/>
<text text-anchor="middle" x="31" y="-310.6" font-family="Sans-Serif" font-size="8.00"> </text>
<polyline fill="none" stroke="black" points="0,-304 62,-304"/>
<text text-anchor="middle" x="31" y="-293.6" font-family="Sans-Serif" font-size="8.00"> </text>
</g>
<!-- Jogo&#45;&gt;MDRenderer -->
<g id="edge5" class="edge">
<title>Jogo&#45;&gt;MDRenderer</title>
<path fill="none" stroke="black" stroke-dasharray="5,2" d="M75.57,-388.66C68,-375.89 58.61,-360.07 50.41,-346.24"/>
<polygon fill="black" stroke="black" points="45.49,-337.93 54.46,-344.24 48.04,-342.23 50.59,-346.54 50.59,-346.54 50.59,-346.54 48.04,-342.23 46.72,-348.83 45.49,-337.93 45.49,-337.93"/>
</g>
<!-- DataBase -->
<g id="node3" class="node">
<title>DataBase</title>
<polygon fill="none" stroke="black" points="42.5,-176.5 42.5,-236.5 125.5,-236.5 125.5,-176.5 42.5,-176.5"/>
<text text-anchor="middle" x="84" y="-226.1" font-family="Sans-Serif" font-size="8.00">DataBase</text>
<polyline fill="none" stroke="black" points="42.5,-219.5 125.5,-219.5"/>
<text text-anchor="start" x="50.5" y="-209.1" font-family="Sans-Serif" font-size="8.00">+ con: Connection</text>
<polyline fill="none" stroke="black" points="42.5,-202.5 125.5,-202.5"/>
<text text-anchor="start" x="50.5" y="-192.1" font-family="Sans-Serif" font-size="8.00">+ connect(): void</text>
<text text-anchor="start" x="50.5" y="-183.1" font-family="Sans-Serif" font-size="8.00">+ close(): void</text>
</g>
<!-- Jogo&#45;&gt;DataBase -->
<g id="edge6" class="edge">
<title>Jogo&#45;&gt;DataBase</title>
<path fill="none" stroke="black" stroke-dasharray="5,2" d="M89.29,-388.62C88.26,-353.46 86.35,-288.15 85.13,-246.31"/>
<polygon fill="black" stroke="black" points="84.85,-236.47 89.64,-246.33 84.99,-241.47 85.14,-246.47 85.14,-246.47 85.14,-246.47 84.99,-241.47 80.64,-246.6 84.85,-236.47 84.85,-236.47"/>
</g>
<!-- Personagem -->
<g id="node7" class="node">
<title>Personagem</title>
<polygon fill="none" stroke="black" points="129.5,-273.5 129.5,-351.5 226.5,-351.5 226.5,-273.5 129.5,-273.5"/>
<text text-anchor="middle" x="178" y="-341.1" font-family="Sans-Serif" font-size="8.00">Personagem</text>
<polyline fill="none" stroke="black" points="129.5,-334.5 226.5,-334.5"/>
<text text-anchor="start" x="137.5" y="-324.1" font-family="Sans-Serif" font-size="8.00">+ nome: string</text>
<text text-anchor="start" x="137.5" y="-315.1" font-family="Sans-Serif" font-size="8.00">+ vida: double = 1</text>
<text text-anchor="start" x="137.5" y="-306.1" font-family="Sans-Serif" font-size="8.00">+ status: boolean</text>
<polyline fill="none" stroke="black" points="129.5,-299.5 226.5,-299.5"/>
<text text-anchor="start" x="137.5" y="-289.1" font-family="Sans-Serif" font-size="8.00">+ toogleStatus(): void</text>
<text text-anchor="start" x="137.5" y="-280.1" font-family="Sans-Serif" font-size="8.00">+ dano(): void</text>
</g>
<!-- Jogo&#45;&gt;Personagem -->
<g id="edge8" class="edge">
<title>Jogo&#45;&gt;Personagem</title>
<path fill="none" stroke="black" stroke-dasharray="5,2" d="M111.53,-388.66C119.55,-379.59 128.94,-368.97 138.09,-358.62"/>
<polygon fill="black" stroke="black" points="144.69,-351.16 141.44,-361.64 141.38,-354.91 138.06,-358.65 138.06,-358.65 138.06,-358.65 141.38,-354.91 134.69,-355.67 144.69,-351.16 144.69,-351.16"/>
</g>
<!-- Pergunta -->
<g id="node6" class="node">
<title>Pergunta</title>
<polygon fill="none" stroke="black" points="102,-88.5 102,-139.5 156,-139.5 156,-88.5 102,-88.5"/>
<text text-anchor="middle" x="129" y="-129.1" font-family="Sans-Serif" font-size="8.00">Pergunta</text>
<polyline fill="none" stroke="black" points="102,-122.5 156,-122.5"/>
<text text-anchor="middle" x="129" y="-112.1" font-family="Sans-Serif" font-size="8.00"> </text>
<polyline fill="none" stroke="black" points="102,-105.5 156,-105.5"/>
<text text-anchor="middle" x="129" y="-95.1" font-family="Sans-Serif" font-size="8.00"> </text>
</g>
<!-- DataBase&#45;&gt;Pergunta -->
<g id="edge7" class="edge">
<title>DataBase&#45;&gt;Pergunta</title>
<path fill="none" stroke="black" stroke-dasharray="5,2" d="M98.36,-176.62C102.88,-167.52 107.91,-157.41 112.57,-148.05"/>
<polygon fill="black" stroke="black" points="116.89,-139.36 116.46,-150.32 114.66,-143.84 112.43,-148.31 112.43,-148.31 112.43,-148.31 114.66,-143.84 108.41,-146.31 116.89,-139.36 116.89,-139.36"/>
</g>
<!-- Enunciado -->
<g id="node4" class="node">
<title>Enunciado</title>
<polygon fill="none" stroke="black" points="112.5,-0.5 112.5,-51.5 199.5,-51.5 199.5,-0.5 112.5,-0.5"/>
<text text-anchor="middle" x="156" y="-41.1" font-family="Sans-Serif" font-size="8.00">Enunciado</text>
<polyline fill="none" stroke="black" points="112.5,-34.5 199.5,-34.5"/>
<text text-anchor="middle" x="156" y="-24.1" font-family="Sans-Serif" font-size="8.00">+ enunciado: string</text>
<polyline fill="none" stroke="black" points="112.5,-17.5 199.5,-17.5"/>
<text text-anchor="middle" x="156" y="-7.1" font-family="Sans-Serif" font-size="8.00"> </text>
</g>
<!-- Alternativa -->
<g id="node5" class="node">
<title>Alternativa</title>
<polygon fill="none" stroke="black" points="143.5,-181 143.5,-232 224.5,-232 224.5,-181 143.5,-181"/>
<text text-anchor="middle" x="184" y="-221.6" font-family="Sans-Serif" font-size="8.00">Alternativa</text>
<polyline fill="none" stroke="black" points="143.5,-215 224.5,-215"/>
<text text-anchor="middle" x="184" y="-204.6" font-family="Sans-Serif" font-size="8.00">+ status: boolean</text>
<polyline fill="none" stroke="black" points="143.5,-198 224.5,-198"/>
<text text-anchor="middle" x="184" y="-187.6" font-family="Sans-Serif" font-size="8.00"> </text>
</g>
<!-- Alternativa&#45;&gt;Enunciado -->
<g id="edge1" class="edge">
<title>Alternativa&#45;&gt;Enunciado</title>
<path fill="none" stroke="black" d="M180.17,-181.05C175.36,-150.43 167.09,-97.72 161.59,-62.61"/>
<polygon fill="none" stroke="black" points="165.08,-62.27 160.07,-52.93 158.16,-63.35 165.08,-62.27"/>
</g>
<!-- Alternativa&#45;&gt;Pergunta -->
<g id="edge3" class="edge">
<title>Alternativa&#45;&gt;Pergunta</title>
<path fill="none" stroke="black" d="M169.26,-181.25C163.47,-171.71 156.7,-160.58 150.39,-150.19"/>
<polygon fill="black" stroke="black" points="150.48,-150.34 143.95,-147.29 144.25,-140.09 150.78,-143.14 150.48,-150.34"/>
<text text-anchor="middle" x="141.28" y="-141.92" font-family="Sans-Serif" font-size="8.00">1</text>
<text text-anchor="middle" x="161.26" y="-174.85" font-family="Sans-Serif" font-size="8.00">3..*</text>
</g>
<!-- Pergunta&#45;&gt;Enunciado -->
<g id="edge2" class="edge">
<title>Pergunta&#45;&gt;Enunciado</title>
<path fill="none" stroke="black" d="M136.66,-88.59C139.23,-80.42 142.14,-71.14 144.92,-62.31"/>
<polygon fill="none" stroke="black" points="148.21,-63.51 147.86,-52.92 141.53,-61.41 148.21,-63.51"/>
</g>
<!-- Personagem&#45;&gt;Alternativa -->
<g id="edge4" class="edge">
<title>Personagem&#45;&gt;Alternativa</title>
<path fill="none" stroke="black" d="M180.18,-273.66C180.99,-259.72 181.88,-244.31 182.59,-231.88"/>
<text text-anchor="middle" x="180.09" y="-234.48" font-family="Sans-Serif" font-size="8.00">1</text>
<text text-anchor="middle" x="177.68" y="-267.26" font-family="Sans-Serif" font-size="8.00">1</text>
</g>
</g>
</svg>
