<?xml version="1.0" encoding="UTF-8" standalone="no"?>
<!DOCTYPE svg PUBLIC "-//W3C//DTD SVG 1.1//EN"
 "http://www.w3.org/Graphics/SVG/1.1/DTD/svg11.dtd">
<!-- Generated by graphviz version 7.1.0 (20230121.1956)
 -->
<!-- Title: g Pages: 1 -->
<svg width="145pt" height="239pt"
 viewBox="0.00 0.00 145.30 238.60" xmlns="http://www.w3.org/2000/svg" xmlns:xlink="http://www.w3.org/1999/xlink">
<g id="graph0" class="graph" transform="scale(1 1) rotate(0) translate(4 234.6)">
<title>g</title>
<polygon fill="white" stroke="none" points="-4,4 -4,-234.6 141.3,-234.6 141.3,4 -4,4"/>
<!-- pergunta_enunciado -->
<g id="node1" class="node">
<title>pergunta_enunciado</title>
<ellipse fill="white" stroke="black" cx="38.8" cy="-139.6" rx="1.8" ry="1.8"/>
<text text-anchor="middle" x="18.5" y="-144" font-family="Sans-Serif" font-size="8.00">enunciado</text>
</g>
<!-- pergunta_id -->
<g id="node2" class="node">
<title>pergunta_id</title>
<ellipse fill="black" stroke="black" cx="60.8" cy="-139.6" rx="1.8" ry="1.8"/>
<text text-anchor="middle" x="55.5" y="-144" font-family="Sans-Serif" font-size="8.00">id</text>
</g>
<!-- tem -->
<g id="node3" class="node">
<title>tem</title>
<polygon fill="none" stroke="black" points="107.8,-157.6 80.8,-139.6 107.8,-121.6 134.8,-139.6 107.8,-157.6"/>
<text text-anchor="middle" x="107.8" y="-137.7" font-family="Sans-Serif" font-size="8.00">tem</text>
</g>
<!-- alternativas -->
<g id="node8" class="node">
<title>alternativas</title>
<polygon fill="none" stroke="black" points="78.3,-49.1 78.3,-85.1 137.3,-85.1 137.3,-49.1 78.3,-49.1"/>
<text text-anchor="middle" x="107.8" y="-65.2" font-family="Sans-Serif" font-size="8.00">alternativas</text>
</g>
<!-- tem&#45;&#45;alternativas -->
<g id="edge4" class="edge">
<title>tem&#45;&#45;alternativas</title>
<path fill="none" stroke="black" d="M107.8,-121.17C107.8,-110.08 107.8,-95.8 107.8,-84.84"/>
<text text-anchor="middle" x="105.3" y="-114.77" font-family="Sans-Serif" font-size="8.00">n</text>
</g>
<!-- status -->
<g id="node4" class="node">
<title>status</title>
<ellipse fill="white" stroke="black" cx="85.8" cy="-10.8" rx="1.8" ry="1.8"/>
<text text-anchor="middle" x="72.5" y="-15.2" font-family="Sans-Serif" font-size="8.00">status</text>
</g>
<!-- alternativa_enunciado -->
<g id="node5" class="node">
<title>alternativa_enunciado</title>
<ellipse fill="white" stroke="black" cx="107.8" cy="-10.8" rx="1.8" ry="1.8"/>
<text text-anchor="middle" x="87.5" y="-2.6" font-family="Sans-Serif" font-size="8.00">enunciado</text>
</g>
<!-- alternativa_id -->
<g id="node6" class="node">
<title>alternativa_id</title>
<ellipse fill="black" stroke="black" cx="129.8" cy="-10.8" rx="1.8" ry="1.8"/>
<text text-anchor="middle" x="124.5" y="-15.2" font-family="Sans-Serif" font-size="8.00">id</text>
</g>
<!-- perguntas -->
<g id="node7" class="node">
<title>perguntas</title>
<polygon fill="none" stroke="black" points="33.8,-194.1 33.8,-230.1 87.8,-230.1 87.8,-194.1 33.8,-194.1"/>
<text text-anchor="middle" x="60.8" y="-210.2" font-family="Sans-Serif" font-size="8.00">perguntas</text>
</g>
<!-- perguntas&#45;&#45;pergunta_enunciado -->
<g id="edge1" class="edge">
<title>perguntas&#45;&#45;pergunta_enunciado</title>
<path fill="none" stroke="black" d="M55.59,-194.39C49.69,-175.5 40.69,-146.67 39.06,-141.43"/>
</g>
<!-- perguntas&#45;&#45;pergunta_id -->
<g id="edge2" class="edge">
<title>perguntas&#45;&#45;pergunta_id</title>
<path fill="none" stroke="black" d="M60.8,-194.39C60.8,-175.5 60.8,-146.67 60.8,-141.43"/>
</g>
<!-- perguntas&#45;&#45;tem -->
<g id="edge3" class="edge">
<title>perguntas&#45;&#45;tem</title>
<path fill="none" stroke="black" d="M71.94,-194.39C80.52,-181.53 92.17,-164.05 99.83,-152.56"/>
<text text-anchor="middle" x="69.44" y="-187.99" font-family="Sans-Serif" font-size="8.00">1</text>
</g>
<!-- alternativas&#45;&#45;status -->
<g id="edge7" class="edge">
<title>alternativas&#45;&#45;status</title>
<path fill="none" stroke="black" d="M100.96,-49.22C95.41,-35.52 88.2,-17.73 86.29,-13"/>
</g>
<!-- alternativas&#45;&#45;alternativa_enunciado -->
<g id="edge6" class="edge">
<title>alternativas&#45;&#45;alternativa_enunciado</title>
<path fill="none" stroke="black" d="M107.8,-49.22C107.8,-35.52 107.8,-17.73 107.8,-13"/>
</g>
<!-- alternativas&#45;&#45;alternativa_id -->
<g id="edge5" class="edge">
<title>alternativas&#45;&#45;alternativa_id</title>
<path fill="none" stroke="black" d="M114.64,-49.22C120.19,-35.52 127.4,-17.73 129.31,-13"/>
</g>
</g>
</svg>
